<svg width="24" height="24" viewBox="0 0 24 24" fill="none" xmlns="http://www.w3.org/2000/svg">
<path d="M21.7406 19.875C20.3412 17.4643 18.1012 15.6549 15.45 14.7938C16.7208 14.0381 17.7083 12.8861 18.2608 11.5148C18.8134 10.1435 18.9005 8.62865 18.5086 7.20306C18.1168 5.77746 17.2677 4.51995 16.0919 3.6237C14.916 2.72745 13.4785 2.24203 12 2.24203C10.5215 2.24203 9.08396 2.72745 7.90813 3.6237C6.73229 4.51995 5.88323 5.77746 5.49139 7.20306C5.09955 8.62865 5.18659 10.1435 5.73916 11.5148C6.29172 12.8861 7.27924 14.0381 8.55 14.7938C5.89885 15.6549 3.65882 17.4643 2.25938 19.875C2.20068 19.9602 2.16023 20.0565 2.14057 20.1581C2.12091 20.2596 2.12246 20.3641 2.14513 20.465C2.16779 20.5659 2.21109 20.6611 2.27229 20.7444C2.33349 20.8278 2.41127 20.8976 2.50074 20.9495C2.59022 21.0014 2.68946 21.0342 2.79222 21.0459C2.89499 21.0575 2.99906 21.0478 3.09789 21.0174C3.19672 20.9869 3.28818 20.9363 3.36653 20.8688C3.44487 20.8013 3.5084 20.7183 3.55313 20.625C4.41036 19.1437 5.64205 17.9139 7.12464 17.059C8.60722 16.204 10.2886 15.754 12 15.754C13.7114 15.754 15.3928 16.204 16.8754 17.059C18.358 17.9139 19.5896 19.1437 20.4469 20.625C20.4916 20.7183 20.5551 20.8013 20.6335 20.8688C20.7118 20.9363 20.8033 20.9869 20.9021 21.0174C21.001 21.0478 21.105 21.0575 21.2078 21.0459C21.3105 21.0342 21.4098 21.0014 21.4993 20.9495C21.5887 20.8976 21.6665 20.8278 21.7277 20.7444C21.7889 20.6611 21.8322 20.5659 21.8549 20.465C21.8775 20.3641 21.8791 20.2596 21.8594 20.1581C21.8398 20.0565 21.7993 19.9602 21.7406 19.875ZM6.75 9.00001C6.75 7.96166 7.05791 6.94663 7.63479 6.08327C8.21167 5.21992 9.0316 4.54701 9.99092 4.14965C10.9502 3.75229 12.0058 3.64831 13.0242 3.85089C14.0426 4.05346 14.9781 4.55348 15.7123 5.28771C16.4465 6.02193 16.9466 6.95739 17.1491 7.97579C17.3517 8.99419 17.2477 10.0498 16.8504 11.0091C16.453 11.9684 15.7801 12.7883 14.9167 13.3652C14.0534 13.9421 13.0384 14.25 12 14.25C10.6076 14.25 9.27226 13.6969 8.28769 12.7123C7.30313 11.7278 6.75 10.3924 6.75 9.00001Z" fill="#3CDC86"/>
</svg>
